HIERARCHY
ROOT Hips
{
	OFFSET 0.000000 0.000000 0.000000
	CHANNELS 6 Xposition Yposition Zposition Xrotation Yrotation Zrotation
	JOINT Spine
	{
		OFFSET 0.000000 -0.000000 1.489414
		CHANNELS 3 Xrotation Yrotation Zrotation
		JOINT Spine1
		{
			OFFSET 0.000000 -0.000001 4.064482
			CHANNELS 3 Xrotation Yrotation Zrotation
			JOINT Neck
			{
				OFFSET 0.000000 -0.000001 4.427754
				CHANNELS 3 Xrotation Yrotation Zrotation
				JOINT Head
				{
					OFFSET 0.000000 -0.363272 2.815356
					CHANNELS 3 Xrotation Yrotation Zrotation
					End Site
					{
						OFFSET 0.000000 -0.000001 3.632717
					}
				}
			}
			JOINT LeftShoulder
			{
				OFFSET 0.731535 0.096024 3.575184
				CHANNELS 3 Xrotation Yrotation Zrotation
				JOINT LeftArm
				{
					OFFSET 2.610319 0.000000 0.000000
					CHANNELS 3 Xrotation Yrotation Zrotation
					JOINT LeftForeArm
					{
						OFFSET 5.118421 0.000000 0.000000
						CHANNELS 3 Xrotation Yrotation Zrotation
						JOINT LeftHand
						{
							OFFSET 4.756909 0.000000 0.000000
							CHANNELS 3 Xrotation Yrotation Zrotation
							End Site
							{
								OFFSET 2.724539 0.000000 0.000000
							}
						}
					}
				}
			}
			JOINT RightShoulder
			{
				OFFSET -0.721442 0.096024 3.575184
				CHANNELS 3 Xrotation Yrotation Zrotation
				JOINT RightArm
				{
					OFFSET -2.610319 0.000000 0.000000
					CHANNELS 3 Xrotation Yrotation Zrotation
					JOINT RightForeArm
					{
						OFFSET -5.118422 0.000000 0.000000
						CHANNELS 3 Xrotation Yrotation Zrotation
						JOINT RightHand
						{
							OFFSET -4.756909 0.000000 0.000000
							CHANNELS 3 Xrotation Yrotation Zrotation
							End Site
							{
								OFFSET -2.724539 0.000000 0.000000
							}
						}
					}
				}
			}
		}
	}
	JOINT LeftUpLeg
	{
		OFFSET 1.816359 0.000000 0.000000
		CHANNELS 3 Xrotation Yrotation Zrotation
		JOINT LeftLeg
		{
			OFFSET 0.000000 0.000001 -7.638974
			CHANNELS 3 Xrotation Yrotation Zrotation
			JOINT LeftFoot
			{
				OFFSET 0.000000 0.000001 -8.008609
				CHANNELS 3 Xrotation Yrotation Zrotation
				JOINT LeftToeBase
				{
					OFFSET 0.000000 -2.724539 -1.180634
					CHANNELS 3 Xrotation Yrotation Zrotation
					End Site
					{
						OFFSET 0.000000 -0.726544 0.000000
					}
				}
			}
		}
	}
	JOINT RightUpLeg
	{
		OFFSET -1.816359 0.000000 0.000000
		CHANNELS 3 Xrotation Yrotation Zrotation
		JOINT RightLeg
		{
			OFFSET 0.000000 0.000001 -7.638974
			CHANNELS 3 Xrotation Yrotation Zrotation
			JOINT RightFoot
			{
				OFFSET 0.000000 0.000001 -8.008609
				CHANNELS 3 Xrotation Yrotation Zrotation
				JOINT RightToeBase
				{
					OFFSET 0.000000 -2.724539 -1.180634
					CHANNELS 3 Xrotation Yrotation Zrotation
					End Site
					{
						OFFSET 0.000000 -0.726544 0.000000
					}
				}
			}
		}
	}
}
MOTION
Frames: 13
Frame Time: 0.041667
1.266585 0.147483 16.001276 3.682464 -0.731901 1.171363 -18.249675 1.984786 -1.755210 18.384071 -4.883034 0.085471 9.902632 -5.723357 5.228047 5.662383 5.697301 6.096323 -8.795696 -20.886556 -0.031227 0.403582 14.356281 -10.985670 -9.435003 -4.977314 -9.410013 -8.980113 7.301199 -0.714734 -2.362087 17.743267 -9.808515 28.311310 1.799531 22.147387 -44.639835 38.626557 106.637776 5.546038 34.470076 0.673334 -6.905174 2.488188 -1.828544 13.558808 -0.938095 1.840758 -5.540316 -2.784888 21.492811 0.000002 0.000000 -0.000001 -5.828649 -1.222834 0.772102 12.778532 -1.886402 -0.740982 -12.182695 1.096953 -21.139234 -0.000001 -0.000000 -0.000001 
1.272045 0.150490 16.002228 3.756505 -0.754983 1.175603 -18.220342 1.985338 -1.753106 18.298861 -4.863902 0.079614 9.864345 -5.711247 5.244776 5.649159 5.697973 6.115754 -8.769515 -20.866662 0.000667 0.281748 14.384805 -10.990598 -9.379831 -4.956870 -9.405547 -8.926731 7.308833 -0.715127 -2.354295 17.765136 -9.775716 28.376327 1.751714 22.097076 -44.780073 38.618702 106.751520 5.503256 34.467283 0.623076 -7.490296 2.527952 -1.811886 14.543319 -0.864301 1.551137 -5.837514 -2.884188 21.787339 0.000003 0.000000 -0.000002 -5.921817 -1.130955 0.788962 12.802373 -1.979047 -0.718780 -12.188109 1.119330 -21.152136 0.000001 0.000000 0.000002 
1.278333 0.154317 16.003475 3.831598 -0.777744 1.195943 -18.167895 1.987260 -1.761438 18.191333 -4.845483 0.069462 9.802202 -5.681941 5.256056 5.664298 5.676378 6.126842 -8.746689 -20.853601 0.020963 0.267362 14.411619 -10.987640 -9.394864 -4.953708 -9.430747 -8.941366 7.294079 -0.709746 -2.360490 17.777690 -9.779097 28.418559 1.739839 22.078523 -44.887296 38.632735 106.843276 5.496149 34.428876 0.595996 -8.137055 2.573362 -1.760482 15.652649 -0.804889 1.316780 -6.214794 -3.177379 21.913982 0.000002 -0.000000 -0.000005 -6.018948 -1.034283 0.807513 12.818973 -2.080409 -0.740420 -12.183917 1.117297 -21.157319 -0.000001 0.000001 -0.000000 
1.285880 0.158497 16.004795 3.903463 -0.799815 1.246187 -18.108611 1.967940 -1.791209 18.082823 -4.786714 0.047042 9.748555 -5.666390 5.265807 5.642709 5.664517 6.139094 -8.700860 -20.858824 0.054604 0.228508 14.443258 -11.003155 -9.408088 -4.954542 -9.434977 -8.957126 7.310728 -0.664358 -2.332681 17.771582 -9.792999 28.308622 1.696217 22.063953 -44.737661 37.991298 106.744225 3.533639 33.119796 4.783392 -8.841881 2.627155 -1.810582 16.893617 -0.718429 0.943989 -6.802963 -3.351379 22.295575 0.000001 -0.000000 0.000000 -6.114562 -0.929394 0.825905 12.826421 -2.187456 -1.148761 -12.167613 1.060417 -20.808757 0.000000 0.000001 -0.000001 
1.293861 0.162593 16.006151 3.978463 -0.808433 1.307411 -18.058622 1.943996 -1.810677 17.992450 -4.742352 0.031270 9.678131 -5.660673 5.250589 5.625141 5.663814 6.127577 -8.659145 -20.846151 0.046456 0.184217 14.461425 -10.999483 -9.402778 -4.978852 -9.437581 -8.947232 7.346829 -0.699358 -2.372005 17.775637 -9.773258 28.287080 1.660946 22.001098 -44.857547 38.601839 107.003212 5.687982 34.515572 0.364985 -9.568400 2.695782 -1.780121 18.228745 -0.670228 0.674913 -7.476448 -3.591064 22.454756 0.000001 0.000001 -0.000001 -6.216626 -0.835219 0.845096 12.861271 -2.296369 -1.177851 -12.171256 1.040857 -20.841656 0.000000 0.000000 0.000003 
1.303928 0.167451 16.007917 4.050078 -0.803558 1.396135 -17.987315 1.898501 -1.843742 17.884017 -4.691841 0.010593 9.598754 -5.650620 5.232731 5.606729 5.655030 6.112960 -8.612128 -20.839221 0.061507 0.056729 14.498255 -11.030593 -9.399590 -4.974720 -9.403116 -8.947393 7.363200 -0.674348 -2.319822 17.788277 -9.801313 28.301010 1.625644 21.926021 -45.056063 38.685358 107.134878 5.710921 34.527422 0.328808 -10.296105 2.741454 -2.010393 19.448079 -0.495064 0.598379 -8.003740 -3.853709 22.576326 0.000003 -0.000001 -0.000000 -6.306592 -0.752286 0.862063 12.888791 -2.394556 -1.053353 -12.151175 1.072763 -21.040335 0.000001 0.000001 0.000001 
1.314385 0.170765 16.009632 4.127312 -0.796391 1.505630 -17.954073 1.873485 -1.891442 17.819108 -4.679808 -0.008437 9.519655 -5.618616 5.215671 5.555389 5.654548 6.100421 -8.567923 -20.816572 0.061517 0.002837 14.539161 -11.044153 -9.421542 -5.002966 -9.399508 -8.964530 7.393584 -0.712928 -2.310018 17.810924 -9.815945 28.268686 1.599397 21.832645 -45.004393 37.971515 107.082019 3.519962 33.137079 4.755234 -10.974303 2.774175 -2.235322 20.533381 -0.260262 0.397312 -8.361280 -4.409685 22.749391 0.000001 0.000001 -0.000004 -6.392693 -0.688610 0.877571 12.881061 -2.459106 -1.409458 -12.126186 0.996354 -20.817353 0.000000 0.000000 0.000000 
1.354071 0.115038 16.039528 3.014002 0.063099 2.674527 -17.284905 0.554114 -3.042674 18.251698 -3.936472 -0.424131 9.412271 -5.625734 5.187954 5.516308 5.632163 6.077769 -8.575640 -20.818898 0.013384 0.050088 14.545332 -11.030604 -9.473787 -5.018825 -9.418831 -9.016740 7.411582 -0.678167 -2.339477 17.780284 -9.808268 28.181051 1.568995 21.708981 -44.988663 37.938159 107.170217 3.566426 33.141912 4.749601 -10.216730 2.355764 -3.825245 21.361514 -0.181000 0.697567 -8.709640 -4.760653 22.675943 0.000000 0.000001 -0.000003 -4.592589 -1.202215 0.582250 12.028776 -2.916901 -1.907035 -11.264739 0.669384 -21.322247 0.000003 0.000000 0.000001 
1.365544 0.120902 16.038685 3.116704 0.010234 2.716431 -17.233918 0.584029 -2.995776 18.158804 -3.924166 -0.414992 9.328285 -5.640767 5.142903 5.436479 5.655061 6.042101 -8.574701 -20.828296 -0.029631 0.052021 14.595450 -11.046721 -9.512468 -5.057227 -9.410465 -9.053469 7.420579 -0.663981 -2.225657 17.784650 -9.876985 28.108822 1.520565 21.620322 -45.165948 37.947636 107.297668 3.520345 33.110892 4.696077 -10.862561 2.347384 -4.272886 22.317723 0.437509 0.576413 -9.194346 -4.967328 23.160174 0.000000 0.000001 0.000001 -4.775179 -1.095605 0.610668 12.158537 -2.940911 -1.915732 -11.335814 0.666434 -21.370140 0.000001 0.000000 -0.000000 
1.377952 0.123490 16.039196 3.174846 -0.034143 2.758276 -17.170440 0.611500 -2.958452 18.091049 -3.915508 -0.407310 9.264779 -5.665298 5.103446 5.350303 5.683654 6.012473 -8.544169 -20.852728 -0.058038 -0.086343 14.672448 -11.029959 -9.489722 -5.037673 -9.402137 -9.030664 7.361910 -0.701063 -2.209344 17.776090 -9.866718 27.923555 1.423391 21.493489 -45.068102 37.892387 107.368491 3.604035 33.120608 4.702288 -11.351348 2.435424 -4.467838 22.992932 0.773375 0.504457 -9.759843 -4.728205 23.352067 -0.000001 -0.000000 0.000001 -4.892659 -0.987536 0.630591 12.288779 -2.987376 -1.535065 -11.399091 0.724040 -21.797523 0.000001 0.000001 -0.000001 
1.391157 0.127390 16.038048 3.270660 -0.108045 2.740112 -17.142067 0.671860 -2.873467 18.037688 -3.924879 -0.382141 9.183171 -5.683357 5.078010 5.263997 5.706481 5.997509 -8.535882 -20.834374 -0.091126 -0.083976 14.670309 -11.021006 -9.526592 -5.028905 -9.415991 -9.068167 7.346980 -0.694139 -2.178096 17.768539 -9.900492 27.738815 1.367503 21.439892 -44.992498 37.840614 107.403960 3.633859 33.151348 4.730846 -11.768501 2.543281 -4.590235 23.484033 1.093717 0.396238 -10.374838 -4.543858 23.082363 0.000004 -0.000000 -0.000001 -5.066262 -0.855819 0.660542 12.410917 -3.013528 -1.577714 -11.476693 0.708751 -21.777017 -0.000001 0.000000 -0.000002 
1.405788 0.127270 16.037300 3.321283 -0.214613 2.691633 -17.099425 0.767196 -2.748970 18.012628 -3.955540 -0.341003 9.129530 -5.696845 5.046194 5.141904 5.723694 5.975696 -8.535149 -20.831416 -0.127626 -0.159948 14.727356 -11.027341 -9.484833 -5.041913 -9.389997 -9.027393 7.340833 -0.680802 -2.166808 17.764446 -9.898091 27.487926 1.284187 21.335902 -44.797551 37.746658 107.420967 3.726511 33.077216 4.736715 -12.101899 2.679902 -4.593094 23.713413 1.364735 0.369157 -10.691590 -4.494801 22.332613 -0.000001 0.000000 -0.000001 -5.188796 -0.686832 0.684186 12.557328 -3.039528 -1.476441 -11.570231 0.738641 -21.837308 0.000001 0.000001 0.000001 
1.422414 0.126044 16.036476 3.352856 -0.320275 2.584810 -17.054974 0.833828 -2.599395 18.010360 -3.958961 -0.293655 9.079757 -5.732991 5.022054 5.024646 5.770021 5.965030 -8.528409 -20.837222 -0.124720 -0.209846 14.774292 -11.046822 -9.470853 -5.038470 -9.387906 -9.011811 7.382584 -0.707518 -2.152467 17.765505 -9.911238 27.329568 1.214787 21.295570 -44.721049 37.699769 107.434757 3.765465 33.096518 4.700301 -12.323540 2.812809 -4.529880 23.755224 1.600817 0.025650 -11.092797 -4.178069 21.761840 0.000000 -0.000000 0.000002 -5.299510 -0.542047 0.706109 12.703435 -3.016394 -1.435666 -11.660712 0.734976 -21.814313 0.000003 0.000000 0.000001 
